<?xml version="1.0" encoding="utf-8"?>
<svg viewBox="0 0 500 500" xmlns="http://www.w3.org/2000/svg">
  <g id="SvgjsG3884" featurekey="symbolFeature-0" transform="matrix(0.239777, 0, 0, 0.239777, 156.182388, 103.120354)" fill="#0a0a0a" style="">
    <g xmlns="http://www.w3.org/2000/svg">
      <path class="fil0" d="M0 333c0,0 106,-65 145,-80 39,-15 62,-23 100,-52 39,-30 88,-91 105,-104 17,-12 17,-8 49,-19 40,-14 95,-98 116,-74 12,15 44,107 58,69 6,-16 19,-42 32,-32 14,11 11,9 25,60 14,51 20,48 38,66 19,17 5,9 25,49 21,40 62,85 77,109 10,18 18,32 21,37 -44,-14 -127,-38 -223,-54 -9,-17 -10,-45 -12,-55 -8,-40 -60,-28 -42,-61 6,-13 89,-89 61,-85 -17,3 -47,9 -53,12 -85,36 20,-84 -66,-47 -8,4 -31,0 -45,15 -13,15 -31,-3 -47,15 -16,18 -6,26 -32,47 -25,21 -24,22 -46,37 -21,15 -24,36 -43,43 -18,7 -53,24 -65,24 -13,0 -63,30 -69,36 -5,7 -109,44 -109,44z" style="fill: rgb(0, 0, 0);"/>
      <path class="fil0" d="M 9.958 330.958 C 9.958 330.958 247 299 441 313 C 634 327 820 394 820 394 L 748 413 C 592 354 431 336 431 336 C 431 336 585 385 674 433 L 553 464 C 553 464 428 389 344 365 C 261 341 9.958 330.958 9.958 330.958 Z" style="fill: rgb(0, 0, 0);"/>
    </g>
  </g>
  <g id="SvgjsG3885" featurekey="nameFeature-0" transform="matrix(2.704641, 0, 0, 2.704641, 31.808056, 218.085403)" fill="#0a0a0a" style="">
    <path d="M25.28 40 l-5.36 0 l0 -13.8 l-11.56 0 l0 13.8 l-5.36 0 l0 -28.48 l5.36 0 l0 9.44 l11.56 0 l0 -9.44 l5.36 0 l0 28.48 z M50.687 40 l-18.4 0 l0 -28.48 l18.76 0 l0 5.2 l-13.4 0 l0 4.2 l11.68 0 l0 5.32 l-11.68 0 l0 8.48 l13.04 0 l0 5.28 z M80.494 40 l-6.32 0 l-10.12 -13.92 l-2.28 0 l0 13.92 l-5.2 0 l0 -28.48 l10.2 0 c1.92 0 3.72 0.76 5.12 2.16 s2.16 3.2 2.16 5.12 c0 2.84 -1.68 5.4 -4.16 6.6 z M61.774 20.88 l5 0 c1.12 0 2.08 -0.92 2.08 -2.08 s-0.96 -2.08 -2.08 -2.08 l-5 0 l0 4.16 z M109.02100000000002 40 l-5.32 0 l0 -19.04 l-7.44 10.16 l-7.4 -10.16 l0 19.04 l-5.32 0 l0 -28.48 l5 0 l7.72 10.6 l7.72 -10.6 l5.04 0 l0 28.48 z M134.068 40 l-18.4 0 l0 -28.48 l18.76 0 l0 5.2 l-13.4 0 l0 4.2 l11.68 0 l0 5.32 l-11.68 0 l0 8.48 l13.04 0 l0 5.28 z M150.955 40.24 c-0.92 0 -1.88 -0.12 -2.88 -0.32 c-2.96 -0.6 -5.84 -2.04 -8.36 -4.24 l-0.76 -0.68 l3.52 -4 l0.76 0.68 c1.84 1.6 3.88 2.68 5.88 3.08 l0.04 0 c0.6 0.12 1.2 0.2 1.8 0.2 c1 0 1.92 -0.2 2.68 -0.56 c0.96 -0.4 2.08 -1.28 2.08 -2.92 c0 -0.88 -0.44 -1.56 -1.36 -2.12 c-1.12 -0.68 -2.64 -1.04 -3.72 -1.24 c-0.48 -0.08 -4.56 -0.92 -6.44 -1.96 c-1.24 -0.76 -2.2 -1.72 -2.88 -2.84 c-0.68 -1.16 -1 -2.44 -1 -3.84 c0 -1.52 0.48 -3.04 1.4 -4.44 c0.88 -1.16 2.08 -2.12 3.52 -2.8 s3.04 -1.04 4.76 -1.04 c0.68 0 1.4 0.08 2.12 0.16 c2.64 0.48 5.24 1.68 7.52 3.6 l0.76 0.64 l-3.4 4.12 l-0.76 -0.64 c-2.6 -2.12 -4.84 -2.6 -6.28 -2.6 c-0.92 0 -1.76 0.2 -2.48 0.52 c-1.12 0.52 -1.84 1.48 -1.84 2.44 c0 0.88 0.32 1.44 1.08 1.96 s1.92 0.92 3.76 1.32 c0.24 0.04 0.56 0.12 0.88 0.2 c1.68 0.32 3.92 0.8 5.48 1.72 c1.36 0.72 2.4 1.72 3.12 2.88 s1.08 2.52 1.08 3.96 c0 1.8 -0.48 3.4 -1.44 4.76 c-0.84 1.16 -2.08 2.16 -3.72 2.96 c-1.4 0.72 -2.96 1.04 -4.92 1.04 z" style="fill: rgb(0, 0, 0);"/>
  </g>
  <g id="SvgjsG3886" featurekey="sloganFeature-0" transform="matrix(1.309096, 0, 0, 1.309096, 182.603104, 337.235382)" fill="#0a0a0a" style="">
    <path d="M7.46 20 l-5.44 0 l0 -14.58 l5.24 0 c2.64 -0.04 4.7 1.32 4.7 3.66 c0 0.34 -0.02 0.64 -0.2 1.2 c-0.08 0.28 -0.2 0.52 -0.36 0.76 c-0.3 0.48 -0.9 1.04 -1.66 1.38 c1.02 0.26 1.84 0.88 2.26 1.58 s0.6 1.4 0.6 2 c0 1.36 -0.58 2.42 -1.54 3.06 c-0.96 0.62 -2.2 0.94 -3.6 0.94 z M7.14 6.82 l-3.6 0 l0 5.08 l3.48 0 c1.14 0 1.98 -0.24 2.54 -0.74 s0.84 -1.12 0.84 -1.9 c0 -1.78 -1.6 -2.44 -3.26 -2.44 z M7.2 13.26 l-3.66 0 l0 5.34 l3.96 0 c1.58 0 3.54 -0.64 3.54 -2.7 c0 -1.26 -0.78 -1.96 -1.76 -2.3 c-0.68 -0.26 -1.34 -0.34 -2.08 -0.34 z M30.746000000000002 12.68 c0 1.38 -0.32 2.64 -0.94 3.78 c-0.64 1.14 -1.52 2.04 -2.64 2.7 c-1.14 0.66 -2.38 1 -3.78 1 c-1.02 0 -1.98 -0.2 -2.9 -0.58 c-0.9 -0.38 -1.68 -0.9 -2.32 -1.58 c-0.64 -0.64 -1.14 -1.42 -1.52 -2.34 c-0.36 -0.92 -0.56 -1.88 -0.56 -2.9 c0 -1.38 0.32 -2.64 0.96 -3.78 c0.62 -1.14 1.5 -2.06 2.64 -2.72 c1.12 -0.66 2.38 -0.98 3.76 -0.98 c1.02 0 1.98 0.18 2.9 0.56 c0.9 0.4 1.68 0.92 2.32 1.56 c0.64 0.68 1.16 1.46 1.52 2.36 c0.38 0.92 0.56 1.88 0.56 2.92 z M29.166 12.76 c0 -1.64 -0.6 -3.16 -1.6 -4.26 s-2.5 -1.8 -4.18 -1.8 c-1.08 0 -2.06 0.28 -2.94 0.8 c-0.88 0.56 -1.56 1.28 -2.04 2.18 c-0.48 0.92 -0.72 1.92 -0.72 3 c0 1.62 0.6 3.16 1.6 4.24 c1 1.1 2.5 1.8 4.16 1.8 c1.08 0 2.06 -0.28 2.94 -0.82 c0.9 -0.52 1.58 -1.26 2.06 -2.16 s0.72 -1.9 0.72 -2.98 z M35.212 20 l0 -14.58 l1.54 0 l0 13.14 l6.92 0 l0 1.44 l-8.46 0 z M47.518 20 l0 -14.58 l1.54 0 l0 14.58 l-1.54 0 z M59.184 14.3 l-3.1 0 l0 5.7 l-1.54 0 l0 -14.58 l4.88 0 c3.56 -0.02 5.12 2.12 5.12 4.38 c0 1.26 -0.48 2.36 -1.34 3.18 c-0.88 0.82 -2.3 1.32 -4.02 1.32 z M59.304 6.859999999999999 l-3.22 0 l0 6.02 l3.14 0 c1.3 0 2.32 -0.38 2.9 -0.98 c0.58 -0.58 0.86 -1.3 0.86 -2.06 c0 -1.42 -0.82 -2.98 -3.68 -2.98 z M68.67 20 l0 -14.58 l9.12 0 l0 1.42 l-7.58 0 l0 5.04 l6.94 0 l0 1.42 l-6.94 0 l0 5.28 l7.66 0 l0 1.42 l-9.2 0 z M86.516 20.14 c-1.38 0 -2.7 -0.52 -3.56 -1.28 c-0.9 -0.78 -1.48 -1.82 -1.6 -2.84 l1.44 -0.4 c0.16 0.86 0.6 1.58 1.32 2.18 c0.7 0.6 1.5 0.9 2.4 0.9 c0.84 0 1.62 -0.2 2.24 -0.64 c0.62 -0.42 1.02 -1.14 1.02 -2.02 c0 -1.02 -0.54 -1.68 -1.22 -2.08 c-0.48 -0.28 -0.9 -0.4 -1.38 -0.5 l-1.92 -0.38 c-0.4 -0.08 -0.82 -0.22 -1.28 -0.42 c-0.46 -0.22 -0.86 -0.48 -1.2 -0.82 c-0.68 -0.66 -1.02 -1.5 -1.02 -2.52 c0 -0.8 0.22 -1.52 0.66 -2.14 c0.44 -0.64 1 -1.1 1.7 -1.44 c0.7 -0.32 1.44 -0.48 2.26 -0.48 c3.14 0 4.52 1.94 4.82 3.5 l-1.4 0.44 c-0.24 -1.04 -1.18 -2.52 -3.44 -2.52 c-1.56 -0.04 -3.08 1.06 -3.06 2.58 c0 1.12 0.7 2.02 2.12 2.3 l1.84 0.36 c1.24 0.24 2.2 0.66 2.84 1.28 c0.44 0.4 0.76 0.86 0.96 1.34 c0.2 0.5 0.3 0.94 0.3 1.34 c0.02 2.56 -2.14 4.32 -4.84 4.26 z M97.402 20 l-1.54 0 l0 -14.58 l1.54 0 l0 6.44 l0.1 0 l6.54 -6.44 l2.12 0 l-7.14 6.98 l7.48 7.6 l-2.16 0 l-6.84 -7.02 l-0.1 0 l0 7.02 z" style="fill: rgb(0, 0, 0);"/>
  </g>
  <text style="font-size: 36; font-family: Roboto; white-space: pre;" transform="matrix(1, 0, 0, 1, 647.300471, 266.431925)"/>
  <text style="font-size: 36; font-family: Roboto; white-space: pre;" transform="matrix(1, 0, 0, 1, 366.784038, 313.967137)"/>
  <g id="SvgjsG4161" featurekey="symbolFeature-0" transform="matrix(0.986807, 0, 0, 0.986807, 426.607883, 246.622941)" fill="#0a0a0a">
    <g xmlns="http://www.w3.org/2000/svg"/>
  </g>
  <g id="SvgjsG4162" featurekey="nameFeature-0" transform="matrix(1.581928, 0, 0, 1.581928, 340.911507, 334.911149)" fill="#0a0a0a"/>
</svg>