<svg preserveAspectRatio="none" width="100%" height="100%" id="svg" viewBox="0 0 1440 390" xmlns="http://www.w3.org/2000/svg" class="transition duration-300 ease-in-out delay-150"><path d="M 0,400 C 0,400 0,100 0,100 C 87.5,94.53571428571428 175,89.07142857142857 308,82 C 441,74.92857142857143 619.5000000000001,66.24999999999999 769,79 C 918.4999999999999,91.75000000000001 1039,125.92857142857142 1146,133 C 1253,140.07142857142858 1346.5,120.03571428571429 1440,100 C 1440,100 1440,400 1440,400 Z" stroke="none" stroke-width="0" fill="#c80000" fill-opacity="0.4" class="transition-all duration-300 ease-in-out delay-150 path-0"></path><path d="M 0,400 C 0,400 0,200 0,200 C 102.89285714285714,219.92857142857144 205.78571428571428,239.85714285714286 324,231 C 442.2142857142857,222.14285714285714 575.75,184.5 717,173 C 858.25,161.5 1007.2142857142858,176.14285714285717 1129,185 C 1250.7857142857142,193.85714285714283 1345.392857142857,196.92857142857142 1440,200 C 1440,200 1440,400 1440,400 Z" stroke="none" stroke-width="0" fill="#c80000" fill-opacity="0.53" class="transition-all duration-300 ease-in-out delay-150 path-1"></path><path d="M 0,400 C 0,400 0,300 0,300 C 128.64285714285717,279.67857142857144 257.28571428571433,259.35714285714283 387,265 C 516.7142857142857,270.64285714285717 647.5,302.25 745,305 C 842.5,307.75 906.7142857142858,281.64285714285717 1017,276 C 1127.2857142857142,270.35714285714283 1283.642857142857,285.17857142857144 1440,300 C 1440,300 1440,400 1440,400 Z" stroke="none" stroke-width="0" fill="#c80000" fill-opacity="1" class="transition-all duration-300 ease-in-out delay-150 path-2"></path></svg>