<svg id="wave" style="transform:rotate(0deg); transition: 0.3s" viewBox="0 0 1440 490" version="1.1" xmlns="http://www.w3.org/2000/svg"><defs><linearGradient id="sw-gradient-0" x1="0" x2="0" y1="1" y2="0"><stop stop-color="rgba(0, 173.406, 37.697, 1)" offset="0%"></stop><stop stop-color="rgba(29.722, 68.674, 50.067, 1)" offset="100%"></stop></linearGradient></defs><path style="transform:translate(0, 0px); opacity:1" fill="url(#sw-gradient-0)" d="M0,392L34.3,334.8C68.6,278,137,163,206,147C274.3,131,343,212,411,236.8C480,261,549,229,617,245C685.7,261,754,327,823,318.5C891.4,310,960,229,1029,228.7C1097.1,229,1166,310,1234,351.2C1302.9,392,1371,392,1440,400.2C1508.6,408,1577,425,1646,432.8C1714.3,441,1783,441,1851,383.8C1920,327,1989,212,2057,138.8C2125.7,65,2194,33,2263,24.5C2331.4,16,2400,33,2469,57.2C2537.1,82,2606,114,2674,122.5C2742.9,131,2811,114,2880,114.3C2948.6,114,3017,131,3086,163.3C3154.3,196,3223,245,3291,236.8C3360,229,3429,163,3497,163.3C3565.7,163,3634,229,3703,253.2C3771.4,278,3840,261,3909,253.2C3977.1,245,4046,245,4114,204.2C4182.9,163,4251,82,4320,73.5C4388.6,65,4457,131,4526,187.8C4594.3,245,4663,294,4731,334.8C4800,376,4869,408,4903,424.7L4937.1,441L4937.1,490L4902.9,490C4868.6,490,4800,490,4731,490C4662.9,490,4594,490,4526,490C4457.1,490,4389,490,4320,490C4251.4,490,4183,490,4114,490C4045.7,490,3977,490,3909,490C3840,490,3771,490,3703,490C3634.3,490,3566,490,3497,490C3428.6,490,3360,490,3291,490C3222.9,490,3154,490,3086,490C3017.1,490,2949,490,2880,490C2811.4,490,2743,490,2674,490C2605.7,490,2537,490,2469,490C2400,490,2331,490,2263,490C2194.3,490,2126,490,2057,490C1988.6,490,1920,490,1851,490C1782.9,490,1714,490,1646,490C1577.1,490,1509,490,1440,490C1371.4,490,1303,490,1234,490C1165.7,490,1097,490,1029,490C960,490,891,490,823,490C754.3,490,686,490,617,490C548.6,490,480,490,411,490C342.9,490,274,490,206,490C137.1,490,69,490,34,490L0,490Z"></path><defs><linearGradient id="sw-gradient-1" x1="0" x2="0" y1="1" y2="0"><stop stop-color="rgba(12.632, 14.169, 29.968, 1)" offset="0%"></stop><stop stop-color="rgba(0, 66.881, 205.281, 1)" offset="100%"></stop></linearGradient></defs><path style="transform:translate(0, 50px); opacity:0.9" fill="url(#sw-gradient-1)" d="M0,343L34.3,302.2C68.6,261,137,180,206,163.3C274.3,147,343,196,411,245C480,294,549,343,617,310.3C685.7,278,754,163,823,171.5C891.4,180,960,310,1029,351.2C1097.1,392,1166,343,1234,310.3C1302.9,278,1371,261,1440,236.8C1508.6,212,1577,180,1646,155.2C1714.3,131,1783,114,1851,98C1920,82,1989,65,2057,122.5C2125.7,180,2194,310,2263,359.3C2331.4,408,2400,376,2469,359.3C2537.1,343,2606,343,2674,334.8C2742.9,327,2811,310,2880,302.2C2948.6,294,3017,294,3086,318.5C3154.3,343,3223,392,3291,343C3360,294,3429,147,3497,106.2C3565.7,65,3634,131,3703,204.2C3771.4,278,3840,359,3909,334.8C3977.1,310,4046,180,4114,155.2C4182.9,131,4251,212,4320,236.8C4388.6,261,4457,229,4526,187.8C4594.3,147,4663,98,4731,81.7C4800,65,4869,82,4903,89.8L4937.1,98L4937.1,490L4902.9,490C4868.6,490,4800,490,4731,490C4662.9,490,4594,490,4526,490C4457.1,490,4389,490,4320,490C4251.4,490,4183,490,4114,490C4045.7,490,3977,490,3909,490C3840,490,3771,490,3703,490C3634.3,490,3566,490,3497,490C3428.6,490,3360,490,3291,490C3222.9,490,3154,490,3086,490C3017.1,490,2949,490,2880,490C2811.4,490,2743,490,2674,490C2605.7,490,2537,490,2469,490C2400,490,2331,490,2263,490C2194.3,490,2126,490,2057,490C1988.6,490,1920,490,1851,490C1782.9,490,1714,490,1646,490C1577.1,490,1509,490,1440,490C1371.4,490,1303,490,1234,490C1165.7,490,1097,490,1029,490C960,490,891,490,823,490C754.3,490,686,490,617,490C548.6,490,480,490,411,490C342.9,490,274,490,206,490C137.1,490,69,490,34,490L0,490Z"></path><defs><linearGradient id="sw-gradient-2" x1="0" x2="0" y1="1" y2="0"><stop stop-color="rgba(212.111, 51.563, 0, 1)" offset="0%"></stop><stop stop-color="rgba(187.066, 0, 0, 1)" offset="100%"></stop></linearGradient></defs><path style="transform:translate(0, 100px); opacity:0.8" fill="url(#sw-gradient-2)" d="M0,0L34.3,8.2C68.6,16,137,33,206,106.2C274.3,180,343,310,411,326.7C480,343,549,245,617,228.7C685.7,212,754,278,823,253.2C891.4,229,960,114,1029,65.3C1097.1,16,1166,33,1234,49C1302.9,65,1371,82,1440,114.3C1508.6,147,1577,196,1646,220.5C1714.3,245,1783,245,1851,204.2C1920,163,1989,82,2057,65.3C2125.7,49,2194,98,2263,130.7C2331.4,163,2400,180,2469,228.7C2537.1,278,2606,359,2674,326.7C2742.9,294,2811,147,2880,122.5C2948.6,98,3017,196,3086,212.3C3154.3,229,3223,163,3291,122.5C3360,82,3429,65,3497,98C3565.7,131,3634,212,3703,261.3C3771.4,310,3840,327,3909,351.2C3977.1,376,4046,408,4114,359.3C4182.9,310,4251,180,4320,155.2C4388.6,131,4457,212,4526,269.5C4594.3,327,4663,359,4731,334.8C4800,310,4869,229,4903,187.8L4937.1,147L4937.1,490L4902.9,490C4868.6,490,4800,490,4731,490C4662.9,490,4594,490,4526,490C4457.1,490,4389,490,4320,490C4251.4,490,4183,490,4114,490C4045.7,490,3977,490,3909,490C3840,490,3771,490,3703,490C3634.3,490,3566,490,3497,490C3428.6,490,3360,490,3291,490C3222.9,490,3154,490,3086,490C3017.1,490,2949,490,2880,490C2811.4,490,2743,490,2674,490C2605.7,490,2537,490,2469,490C2400,490,2331,490,2263,490C2194.3,490,2126,490,2057,490C1988.6,490,1920,490,1851,490C1782.9,490,1714,490,1646,490C1577.1,490,1509,490,1440,490C1371.4,490,1303,490,1234,490C1165.7,490,1097,490,1029,490C960,490,891,490,823,490C754.3,490,686,490,617,490C548.6,490,480,490,411,490C342.9,490,274,490,206,490C137.1,490,69,490,34,490L0,490Z"></path></svg>