<?xml version="1.0" encoding="UTF-8" standalone="no"?>
   
<svg
   width="176.73515"
   height="81.826912"
   viewBox="0 0 46.761176 21.650038"
   version="1.1"
   id="svg5"
   inkscape:version="1.2.2 (732a01da63, 2022-12-09)"
   sodipodi:docname="logowhite.svg"
   inkscape:export-filename="logowhite.pdf"
   inkscape:export-xdpi="300"
   inkscape:export-ydpi="300"
   xmlns:inkscape="http://www.inkscape.org/namespaces/inkscape"
   xmlns:sodipodi="http://sodipodi.sourceforge.net/DTD/sodipodi-0.dtd"
   xmlns="http://www.w3.org/2000/svg"
   xmlns:svg="http://www.w3.org/2000/svg">
  <sodipodi:namedview
     id="namedview7"
     pagecolor="#ffffff"
     bordercolor="#000000"
     borderopacity="0.25"
     inkscape:showpageshadow="2"
     inkscape:pageopacity="0"
     inkscape:pagecheckerboard="0"
     inkscape:deskcolor="#d1d1d1"
     inkscape:document-units="mm"
     showgrid="false"
     shape-rendering="crispEdges"
     inkscape:zoom="4.051698"
     inkscape:cx="92.306977"
     inkscape:cy="16.659682"
     inkscape:window-width="1920"
     inkscape:window-height="991"
     inkscape:window-x="-9"
     inkscape:window-y="-9"
     inkscape:window-maximized="1"
     inkscape:current-layer="g5928" />
  <defs
     id="defs2">
    <inkscape:path-effect
       effect="fill_between_many"
       method="originald"
       linkedpaths="#text4096,0,1|#text4100,0,1|#rect4319,0,1"
       id="path-effect5054"
       is_visible="true"
       lpeversion="0"
       join="true"
       close="true"
       autoreverse="true" />
  </defs>
  <g
     inkscape:label="Capa 1"
     inkscape:groupmode="layer"
     id="layer1"
     transform="translate(-3.0777452,-2.4041485)">
    <g
       id="g4226"
       transform="translate(5.453902,-80.713073)"
       style="fill:#fff;fill-opacity:1;stroke:#fff;stroke-opacity:1">
      <g
         id="g5805"
         transform="translate(0,-5.9709285)">
        <g
           id="g5928"
           transform="translate(-38.036723,-20.33236)">
          <g
             aria-label="BORA"
             transform="matrix(0.4444741,0,0,0.35468859,19.336005,98.022227)"
             id="text4042"
             style="font-size:29.4141px;font-family:Montserrat;-inkscape-font-specification:'Montserrat, @wght=700';font-variation-settings:'wght' 700;letter-spacing:5.29167px;opacity:1;stroke:none;stroke-width:2.58894;paint-order:markers fill stroke;fill:#ffffff;fill-opacity:1">
            <path
               d="m 36.727812,92.822624 v -20.58987 h 10.059623 q 3.882661,0 5.823992,1.470705 1.970744,1.470705 1.970744,3.882661 0,1.617776 -0.79418,2.823754 -0.794181,1.176564 -2.176644,1.823674 -1.382463,0.64711 -3.176723,0.64711 l 0.558868,-1.205978 q 1.941331,0 3.44145,0.64711 1.500119,0.617696 2.323714,1.853089 0.853009,1.235392 0.853009,3.029652 0,2.647269 -2.088401,4.147388 -2.088402,1.470705 -6.147547,1.470705 z m 4.73567,-3.58852 h 5.559265 q 1.853089,0 2.79434,-0.588282 0.970665,-0.617696 0.970665,-1.941331 0,-1.29422 -0.970665,-1.911916 -0.941251,-0.64711 -2.79434,-0.64711 h -5.912234 v -3.470864 h 5.08864 q 1.735432,0 2.647269,-0.588282 0.941251,-0.617696 0.941251,-1.853089 0,-1.205978 -0.941251,-1.79426 -0.911837,-0.617696 -2.647269,-0.617696 h -4.735671 z"
               id="letterB"
               style="fill:#fff;fill-opacity:1" />
            <path
               d="m 74.522044,93.175593 q -2.44137,0 -4.529771,-0.79418 -2.058987,-0.794181 -3.58852,-2.235472 -1.50012,-1.441291 -2.353128,-3.382622 -0.823595,-1.94133 -0.823595,-4.23563 0,-2.2943 0.823595,-4.235631 0.853008,-1.94133 2.382542,-3.382621 1.529533,-1.441291 3.58852,-2.235472 2.058987,-0.79418 4.470943,-0.79418 2.441371,0 4.470944,0.79418 2.058987,0.794181 3.559106,2.235472 1.529533,1.441291 2.382542,3.382621 0.853009,1.911917 0.853009,4.235631 0,2.2943 -0.853009,4.265045 -0.853009,1.94133 -2.382542,3.382621 -1.500119,1.411877 -3.559106,2.206058 -2.029573,0.79418 -4.44153,0.79418 z m -0.02941,-4.059145 q 1.382463,0 2.529613,-0.470626 1.176564,-0.470626 2.058987,-1.353049 0.882423,-0.882423 1.353049,-2.088401 0.500039,-1.205978 0.500039,-2.676683 0,-1.470705 -0.500039,-2.676683 -0.470626,-1.205978 -1.353049,-2.088401 -0.853009,-0.882423 -2.029573,-1.353049 -1.176564,-0.470626 -2.559027,-0.470626 -1.382462,0 -2.559027,0.470626 -1.147149,0.470626 -2.029572,1.353049 -0.882423,0.882423 -1.382463,2.088401 -0.470626,1.205978 -0.470626,2.676683 0,1.441291 0.470626,2.676683 0.50004,1.205978 1.353048,2.088401 0.882423,0.882423 2.058987,1.353049 1.176565,0.470626 2.559027,0.470626 z"
               id="letterO"
               style="fill:#fff;fill-opacity:1" />
            <path
               d="m 94.638419,92.822624 v -20.58987 h 8.912471 q 2.76493,0 4.76509,0.911837 2.00015,0.882423 3.08848,2.559027 1.08832,1.676603 1.08832,4.000317 0,2.2943 -1.08832,3.970904 -1.08833,1.64719 -3.08848,2.529613 -2.00016,0.882423 -4.76509,0.882423 h -6.265202 l 2.117815,-2.088402 v 7.824151 z m 13.089271,0 -5.14746,-7.471181 h 5.08864 l 5.20629,7.471181 z m -8.324187,-7.294697 -2.117815,-2.235471 h 6.000472 q 2.20606,0 3.29438,-0.941252 1.08833,-0.970665 1.08833,-2.647269 0,-1.706018 -1.08833,-2.647269 -1.08832,-0.941251 -3.29438,-0.941251 h -6.000472 l 2.117815,-2.264886 z"
               id="letterR"
               style="fill:#fff;fill-opacity:1" />
            <path
               d="m 118.84337,92.822624 9.1772,-20.58987 h 4.70626 l 9.20661,20.58987 h -5.0004 L 129.40303,74.64471 h 1.8825 l -7.55942,18.177914 z m 4.5886,-4.412115 1.26481,-3.617934 h 10.58907 l 1.29422,3.617934 z"
               id="letterA"
               style="fill:#fff;fill-opacity:1" />
          </g>
          <path
             id="logoBora"
             style="font-size:34.6821px;font-family:Verdana;-inkscape-font-specification:'Verdana, @wght=700';font-variation-settings:'wght' 700;fill:#c1b700;fill-opacity:1;stroke:none;stroke-width:1.21202;paint-order:markers fill stroke"
             d="m 58.01616,109.4206 v 0.0111 h -1.648228 c -0.730665,0 -1.277544,0.0268 -1.640636,0.0806 -0.36309,0.0538 -0.710406,0.16595 -1.042119,0.33629 -0.367574,0.19276 -0.634353,0.44143 -0.80021,0.74625 -0.165857,0.30033 -0.248681,0.66118 -0.248681,1.08254 0,0.47516 0.120907,0.88094 0.362967,1.21714 0.242061,0.33172 0.56482,0.59829 0.968254,0.80001 v 0.0537 c -0.676873,0.13896 -1.210228,0.43717 -1.600214,0.89439 -0.389987,0.45274 -0.584974,1.02647 -0.584974,1.72127 0,0.49757 0.09406,0.93687 0.28233,1.31789 0.18827,0.38102 0.441524,0.69483 0.759789,0.94138 0.376539,0.29585 0.791276,0.50644 1.244019,0.63195 0.448261,0.12552 1.019698,0.18836 1.714502,0.18836 h 3.550263 v -0.0109 h 0.01418 v -1.24258 h 4.17915 l 1.045401,1.24258 h 1.728044 l -3.765295,-4.37735 c 0.636529,-0.24654 1.136171,-0.61175 1.499262,-1.09588 0.363092,-0.4886 0.544759,-1.09375 0.544759,-1.81545 0,-0.53343 -0.103214,-0.97272 -0.309414,-1.31788 -0.201718,-0.34964 -0.484105,-0.6389 -0.847197,-0.86751 -0.322747,-0.20172 -0.685668,-0.34073 -1.089104,-0.41693 -0.403436,-0.0807 -0.907863,-0.12106 -1.513014,-0.12106 z m 1.331221,1.14307 h 1.566769 c 0.35861,0 0.670133,0.027 0.934605,0.0808 0.264476,0.0493 0.493173,0.139 0.685926,0.26899 0.233093,0.15241 0.398949,0.34053 0.497565,0.56466 0.103102,0.21965 0.154501,0.4729 0.154501,0.75979 0,0.37654 -0.04932,0.68806 -0.147934,0.93461 -0.09414,0.24206 -0.241887,0.45723 -0.443605,0.6455 -0.219649,0.20172 -0.486428,0.34072 -0.80021,0.41693 -0.313782,0.0717 -0.681488,0.10751 -1.102855,0.10751 h -1.344762 z m -2.932257,0.004 h 1.586673 v 2.89122 h -1.721272 c -0.416883,0 -0.74859,-0.0202 -0.995133,-0.0605 -0.246544,-0.0448 -0.475036,-0.13431 -0.685719,-0.26878 -0.210682,-0.13448 -0.358639,-0.3072 -0.443808,-0.51789 -0.08965,-0.21516 -0.1346,-0.46841 -0.1346,-0.75979 0,-0.24205 0.04037,-0.44599 0.121057,-0.61185 0.08069,-0.16585 0.210747,-0.30029 0.390052,-0.40339 0.210682,-0.12103 0.466225,-0.19511 0.76656,-0.222 0.300334,-0.0314 0.672412,-0.047 1.11619,-0.047 z m -0.504337,4.01418 h 2.09101 v 3.72508 h -1.761488 c -0.582739,0 -1.06032,-0.0291 -1.432376,-0.0874 -0.372056,-0.0628 -0.676713,-0.17492 -0.914291,-0.3363 -0.251026,-0.17482 -0.434982,-0.37418 -0.55153,-0.59831 -0.116547,-0.22413 -0.174814,-0.51338 -0.174814,-0.86751 0,-0.40343 0.06056,-0.7239 0.181586,-0.96148 0.12103,-0.23758 0.340779,-0.43923 0.659044,-0.60508 0.215165,-0.11207 0.477368,-0.18386 0.786668,-0.21524 0.304818,-0.0358 0.676895,-0.0538 1.116191,-0.0538 z m 3.436594,0.86997 h 1.875982 l 0.923798,1.09806 0.299907,0.35648 h -3.099687 z"
             sodipodi:nodetypes="ccssccsccccssccscccccccccsccccccscccscccscccccscccsccccccccsccssscccccccccc" />
        </g>
      </g>
    </g>
  </g>
</svg>
